# xmcd
#
# Track frame offsets: 
#        150
#        14354
#        25883
#        38499
#        57468
#        69715
#        77002
#        86671
#        109701
#        124595
#        135344
#        151164
#        169875
#        185723
#        199760
#        222727
#        237872
#        248698
#        264581
#        289171
#        313664
#        328614
#
# Disc length: 4516 seconds
#
# Revision: 2
# Processed by: cddbd v1.5.2PL0 Copyright (c) Steve Scherf et al.
# Submitted via: ExactAudioCopy v1.0b3
#
DISCID=3911a216
DTITLE=Climax Blues Band - Couldn't Get It Right
DYEAR=2000
DGENRE=Blues
TTITLE0=Couldn't Get It Right
TTITLE1=Reap What I've Sowed
TTITLE2=Looking for My Baby
TTITLE3=Like Uncle Charlie
TTITLE4=Reaching Out
TTITLE5=Milwaukee Truckin' Blues
TTITLE6=That's All
TTITLE7=Mole on the Dole
TTITLE8=Towards the Sun
TTITLE9=Loving Machine
TTITLE10=Hey Mama
TTITLE11=Nogales
TTITLE12=Using the Power
TTITLE13=I Am Constant
TTITLE14=Sky High
TTITLE15=Berlin Blues
TTITLE16=Everyday
TTITLE17=Shoot Her If She Runs
TTITLE18=If You Wanna Know
TTITLE19=Shake Your Love
TTITLE20=Hey Baby Everything's Gonna Be Alright Yeah Yeah Yeah
TTITLE21=Cobra
EXTD=
EXTT0=
EXTT1=
EXTT2=
EXTT3=
EXTT4=
EXTT5=
EXTT6=
EXTT7=
EXTT8=
EXTT9=
EXTT10=
EXTT11=
EXTT12=
EXTT13=
EXTT14=
EXTT15=
EXTT16=
EXTT17=
EXTT18=
EXTT19=
EXTT20=
EXTT21=
PLAYORDER=
